<svg xmlns="http://www.w3.org/2000/svg" viewBox="0 0 32 32" width="32" height="32">
  <!-- Background -->
  <rect width="32" height="32" rx="6" fill="#3B82F6"/>
  
  <!-- F letter -->
  <path d="M8 8h8c1.1 0 2 .9 2 2s-.9 2-2 2h-6v4h5c1.1 0 2 .9 2 2s-.9 2-2 2h-7c-.6 0-1-.4-1-1V9c0-.6.4-1 1-1z" fill="white"/>
  
  <!-- E letter -->
  <path d="M20 8h7c.6 0 1 .4 1 1s-.4 1-1 1h-6v3h5c.6 0 1 .4 1 1s-.4 1-1 1h-5v3h6c.6 0 1 .4 1 1s-.4 1-1 1h-7c-.6 0-1-.4-1-1V9c0-.6.4-1 1-1z" fill="white"/>
  
  <!-- Fusion Engine accent -->
  <circle cx="24" cy="8" r="2" fill="#10B981"/>
  <circle cx="8" cy="24" r="2" fill="#10B981"/>
</svg>
